<?xml version="1.0" encoding="utf-8"?>
<svg viewBox="0 0.0002 45 55.9995" width="45" height="55.9995" xmlns="http://www.w3.org/2000/svg">
  <path d="M 0.211 50.605 C 0.119 50.655 0 50.597 0 50.503 L 0 5.452 C 0 5.356 0.122 5.298 0.213 5.351 L 9.643 12.515 C 9.681 12.535 9.705 12.574 9.706 12.617 L 9.706 43.657 C 9.706 43.699 9.682 43.737 9.641 43.759 L 0.211 50.605 L 0.211 50.605 Z M 22.85 55.922 C 22.796 56.047 22.583 56.013 22.583 55.879 L 22.583 4.602 C 22.583 4.472 22.786 4.434 22.847 4.552 L 26.407 11.557 C 26.415 11.572 26.418 11.589 26.418 11.606 L 26.418 47.576 C 26.418 47.591 26.415 47.605 26.409 47.619 L 22.85 55.922 L 22.85 55.922 Z M 34.136 51.432 L 29.646 44.397 C 29.634 44.379 29.628 44.358 29.628 44.337 L 29.628 8.55 C 29.628 8.532 29.633 8.515 29.641 8.499 L 34.131 0.07 C 34.194 -0.047 34.394 -0.008 34.394 0.121 L 34.394 51.374 C 34.394 51.498 34.205 51.541 34.136 51.433 L 34.136 51.432 Z M 12.884 52.99 C 12.799 53.072 12.644 53.02 12.644 52.909 L 12.644 3.213 C 12.644 3.103 12.799 3.05 12.884 3.132 L 19.626 10.767 C 19.649 10.788 19.662 10.817 19.662 10.848 L 19.662 45.273 C 19.662 45.303 19.649 45.332 19.626 45.354 L 12.884 52.989 L 12.884 52.99 Z M 44.771 50.44 L 37.511 43.663 C 37.482 43.642 37.465 43.609 37.464 43.573 L 37.464 12.637 C 37.464 12.602 37.481 12.569 37.511 12.546 L 44.771 5.806 C 44.861 5.738 45 5.794 45 5.898 L 45 50.348 C 45 50.452 44.86 50.507 44.771 50.438 L 44.771 50.44 Z" fill="#FFF" fill-rule="evenodd" transform="matrix(1, 0, 0, 1, 8.881784197001252e-16, 8.881784197001252e-16)"/>
</svg>
